# xmcd CD database file
#
# Track frame offsets:
#	150
#	18992
#	38132
#	59307
#	74295
#	98187
#	117732
#	140027
#	160375
#	187287
#	206682
#	230055
#	250910
#	270617
#	287090
#	312160
#
# Disc length: 4373 seconds
#
# Revision: 2
# Processed by: cddbd v1.5.1PL0 Copyright (c) Steve Scherf et al.
# Submitted via: CDex 1.50beta8
#
DISCID=fb111310
DTITLE=山崎ハコ - 山崎ハコ BEST
DYEAR=2002
DGENRE=JPop
TTITLE0=歌いたいの
TTITLE1=望郷
TTITLE2=織江の唄
TTITLE3=ひまわり
TTITLE4=白い花
TTITLE5=ヘルプ・ミー
TTITLE6=二人の風
TTITLE7=オーディション
TTITLE8=スコール
TTITLE9=本牧750cc
TTITLE10=ヨコハマ
TTITLE11=あの海に
TTITLE12=呪い
TTITLE13=桜の日
TTITLE14=サヨナラの鐘
TTITLE15=気分を変えて
EXTD=YEAR: 2002
EXTT0=
EXTT1=
EXTT2=
EXTT3=
EXTT4=
EXTT5=
EXTT6=
EXTT7=
EXTT8=
EXTT9=
EXTT10=
EXTT11=
EXTT12=
EXTT13=
EXTT14=
EXTT15=
PLAYORDER=
